<svg width="4000" height="4000" viewBox="0 0 4000 4000" fill="none" xmlns="http://www.w3.org/2000/svg">
<mask id="mask0_1_9" style="mask-type:luminance" maskUnits="userSpaceOnUse" x="1054" y="1501" width="1892" height="998">
<path d="M1906.65 1501.22L1627.51 2144.63L1359.42 1501.22H1054.45L1480.55 2498.78L1774.77 2498.05L2094.26 1723.53H2485.24C2602.1 1723.53 2660.52 1777.68 2660.52 1870.31C2660.52 1962.94 2602.1 2015.67 2485.24 2015.67H2046.31V2498.77H2328.48V2237.98H2502.34C2774.53 2237.98 2945.54 2096.89 2945.54 1870.31C2945.54 1643.73 2774.53 1501.21 2502.34 1501.21H1906.65V1501.22Z" fill="white"/>
</mask>
<g mask="url(#mask0_1_9)">
<path d="M2945.54 1501.22H1054.45V2498.78H2945.54V1501.22Z" fill="#8B5CF6"/>
</g>
<path fill-rule="evenodd" clip-rule="evenodd" d="M1480.56 2497.32C1519.29 2404.36 1567.48 2288.7 1625.14 2150.33C1699.6 1971.6 1800.62 1755.72 1906.66 1501.22H2185.98L1774.78 2498.05L1480.56 2497.32Z" fill="#8B5CF6"/>
<path fill-rule="evenodd" clip-rule="evenodd" d="M2426.84 2015.68H2046.32V2498.78H2328.49V2237.99H2502.35C2642.36 2230.58 2750.68 2112.5 2746.03 1972.38C2742.54 1867.78 2677.06 1779.61 2585.75 1742.42C2635.6 1765.72 2660.53 1809.81 2660.53 1870.31C2660.53 1961.52 2602.11 2015.67 2485.25 2015.67H2426.84V2015.68Z" fill="#8B5CF6"/>
</svg>
